<?xml version="1.0" encoding="UTF-8" standalone="no"?>
<!DOCTYPE svg PUBLIC "-//W3C//DTD SVG 1.1//EN"
 "http://www.w3.org/Graphics/SVG/1.1/DTD/svg11.dtd">
<!-- Generated by graphviz version 2.44.1 (20200629.0846)
 -->
<!-- Title: dependencies Pages: 1 -->
<svg width="650pt" height="284pt"
 viewBox="0.00 0.00 650.00 284.00" xmlns="http://www.w3.org/2000/svg" xmlns:xlink="http://www.w3.org/1999/xlink">
<g id="graph0" class="graph" transform="scale(1 1) rotate(0) translate(4 280)">
<title>dependencies</title>
<polygon fill="white" stroke="transparent" points="-4,4 -4,-280 646,-280 646,4 -4,4"/>
<text text-anchor="start" x="300.01" y="-42.4" font-family="sans-serif" font-weight="bold" font-size="14.00">Legend</text>
<polygon fill="#ffffb3" stroke="transparent" points="87,-10 87,-30 107,-30 107,-10 87,-10"/>
<text text-anchor="start" x="110.63" y="-15.4" font-family="sans-serif" font-size="14.00"> &#160;Declarations</text>
<polygon fill="#8dd3c7" stroke="transparent" points="200,-10 200,-30 220,-30 220,-10 200,-10"/>
<text text-anchor="start" x="223.73" y="-15.4" font-family="sans-serif" font-size="14.00"> &#160;Module</text>
<polygon fill="#80b1d3" stroke="transparent" points="286,-10 286,-30 306,-30 306,-10 286,-10"/>
<text text-anchor="start" x="309.78" y="-15.4" font-family="sans-serif" font-size="14.00"> &#160;Bootstrap</text>
<polygon fill="#fdb462" stroke="transparent" points="383,-10 383,-30 403,-30 403,-10 383,-10"/>
<text text-anchor="start" x="406.67" y="-15.4" font-family="sans-serif" font-size="14.00"> &#160;Providers</text>
<polygon fill="#fb8072" stroke="transparent" points="479,-10 479,-30 499,-30 499,-10 479,-10"/>
<text text-anchor="start" x="502.73" y="-15.4" font-family="sans-serif" font-size="14.00"> &#160;Exports</text>
<g id="clust1" class="cluster">
<title>cluster_AuthModule</title>
<polygon fill="none" stroke="black" stroke-dasharray="1,5" points="8,-70 8,-268 634,-268 634,-70 8,-70"/>
</g>
<g id="clust4" class="cluster">
<title>cluster_AuthModule_exports</title>
<polygon fill="none" stroke="black" points="102,-208 102,-260 569,-260 569,-208 102,-208"/>
</g>
<g id="clust6" class="cluster">
<title>cluster_AuthModule_providers</title>
<polygon fill="none" stroke="black" points="16,-78 16,-130 626,-130 626,-78 16,-78"/>
</g>
<!-- AuthService  -->
<g id="node1" class="node">
<title>AuthService </title>
<polygon fill="#fb8072" stroke="black" points="560.98,-252 471.02,-252 471.02,-216 560.98,-216 560.98,-252"/>
<text text-anchor="middle" x="516" y="-229.8" font-family="Times,serif" font-size="14.00">AuthService </text>
</g>
<!-- JwtAccessTokenStrategy  -->
<g id="node2" class="node">
<title>JwtAccessTokenStrategy </title>
<polygon fill="#fb8072" stroke="black" points="453.5,-252 292.5,-252 292.5,-216 453.5,-216 453.5,-252"/>
<text text-anchor="middle" x="373" y="-229.8" font-family="Times,serif" font-size="14.00">JwtAccessTokenStrategy </text>
</g>
<!-- JwtRefreshTokenStrategy  -->
<g id="node3" class="node">
<title>JwtRefreshTokenStrategy </title>
<polygon fill="#fb8072" stroke="black" points="274.39,-252 109.61,-252 109.61,-216 274.39,-216 274.39,-252"/>
<text text-anchor="middle" x="192" y="-229.8" font-family="Times,serif" font-size="14.00">JwtRefreshTokenStrategy </text>
</g>
<!-- AuthModule -->
<g id="node4" class="node">
<title>AuthModule</title>
<polygon fill="#8dd3c7" stroke="black" points="416.55,-187 413.55,-191 392.55,-191 389.55,-187 329.45,-187 329.45,-151 416.55,-151 416.55,-187"/>
<text text-anchor="middle" x="373" y="-164.8" font-family="Times,serif" font-size="14.00">AuthModule</text>
</g>
<!-- AuthModule&#45;&gt;AuthService  -->
<g id="edge1" class="edge">
<title>AuthModule&#45;&gt;AuthService </title>
<path fill="none" stroke="black" stroke-dasharray="5,2" d="M416.57,-175C444.85,-175 476.45,-175 476.45,-175 476.45,-175 476.45,-205.98 476.45,-205.98"/>
<polygon fill="black" stroke="black" points="472.95,-205.98 476.45,-215.98 479.95,-205.98 472.95,-205.98"/>
</g>
<!-- AuthModule&#45;&gt;JwtAccessTokenStrategy  -->
<g id="edge2" class="edge">
<title>AuthModule&#45;&gt;JwtAccessTokenStrategy </title>
<path fill="none" stroke="black" stroke-dasharray="5,2" d="M373,-187.11C373,-187.11 373,-205.99 373,-205.99"/>
<polygon fill="black" stroke="black" points="369.5,-205.99 373,-215.99 376.5,-205.99 369.5,-205.99"/>
</g>
<!-- AuthModule&#45;&gt;JwtRefreshTokenStrategy  -->
<g id="edge3" class="edge">
<title>AuthModule&#45;&gt;JwtRefreshTokenStrategy </title>
<path fill="none" stroke="black" stroke-dasharray="5,2" d="M329.37,-175C301.05,-175 269.4,-175 269.4,-175 269.4,-175 269.4,-205.98 269.4,-205.98"/>
<polygon fill="black" stroke="black" points="265.9,-205.98 269.4,-215.98 272.9,-205.98 265.9,-205.98"/>
</g>
<!-- AuthService -->
<g id="node5" class="node">
<title>AuthService</title>
<ellipse fill="#fdb462" stroke="black" cx="559" cy="-104" rx="59.11" ry="18"/>
<text text-anchor="middle" x="559" y="-99.8" font-family="Times,serif" font-size="14.00">AuthService</text>
</g>
<!-- AuthService&#45;&gt;AuthModule -->
<g id="edge4" class="edge">
<title>AuthService&#45;&gt;AuthModule</title>
<path fill="none" stroke="black" d="M530.22,-119.81C530.22,-137.29 530.22,-163 530.22,-163 530.22,-163 426.79,-163 426.79,-163"/>
<polygon fill="black" stroke="black" points="426.79,-159.5 416.79,-163 426.79,-166.5 426.79,-159.5"/>
</g>
<!-- JwtAccessTokenStrategy -->
<g id="node6" class="node">
<title>JwtAccessTokenStrategy</title>
<ellipse fill="#fdb462" stroke="black" cx="373" cy="-104" rx="108.78" ry="18"/>
<text text-anchor="middle" x="373" y="-99.8" font-family="Times,serif" font-size="14.00">JwtAccessTokenStrategy</text>
</g>
<!-- JwtAccessTokenStrategy&#45;&gt;AuthModule -->
<g id="edge5" class="edge">
<title>JwtAccessTokenStrategy&#45;&gt;AuthModule</title>
<path fill="none" stroke="black" d="M373,-122.11C373,-122.11 373,-140.99 373,-140.99"/>
<polygon fill="black" stroke="black" points="369.5,-140.99 373,-150.99 376.5,-140.99 369.5,-140.99"/>
</g>
<!-- JwtRefreshTokenStrategy -->
<g id="node7" class="node">
<title>JwtRefreshTokenStrategy</title>
<ellipse fill="#fdb462" stroke="black" cx="135" cy="-104" rx="111.15" ry="18"/>
<text text-anchor="middle" x="135" y="-99.8" font-family="Times,serif" font-size="14.00">JwtRefreshTokenStrategy</text>
</g>
<!-- JwtRefreshTokenStrategy&#45;&gt;AuthModule -->
<g id="edge6" class="edge">
<title>JwtRefreshTokenStrategy&#45;&gt;AuthModule</title>
<path fill="none" stroke="black" d="M177.94,-120.75C177.94,-138.19 177.94,-163 177.94,-163 177.94,-163 319.22,-163 319.22,-163"/>
<polygon fill="black" stroke="black" points="319.22,-166.5 329.22,-163 319.22,-159.5 319.22,-166.5"/>
</g>
</g>
</svg>
